<?xml version="1.0" encoding="utf-8"?>
<svg version="1.1" id="Layer_1" xmlns="http://www.w3.org/2000/svg" xmlns:xlink="http://www.w3.org/1999/xlink" x="0px" y="0px"
	 viewBox="0 0 509 587.2" style="enable-background:new 0 0 509 587.2;" xml:space="preserve">
<style type="text/css">
	.st0{fill:#F59A00;}
	.st1{opacity:0.68;}
	.st2{fill:#F68A24;}
</style>
<g >
	<g>
		<path class="st0" d="M447.7,49.8C330.4-56.3,18.1,1.7,0.4,275.6C-0.5,288.8,0.1,302,2,315.2C21.7,452.9,185.3,578,359.6,524.8
			c-122.9-103.3,119.3-251.3,131.2-356C496.5,118.1,479.1,78.1,447.7,49.8z"/>
	</g>
	<g class="st1" opacity="0.95">
		<path class="st2" d="M464.4,189.5c79.3,51.2,58.2,320.9-107.8,389.5c-8,3.3-16.3,5.5-24.7,6.7c-87.9,12.2-173.4-44.3-168-190.4
			c72.8,61.2,157.7-185.3,220.4-215.4C414.7,165.2,440,173.7,464.4,189.5z"/>
	</g>
</g>
</svg>
