<svg xmlns="http://www.w3.org/2000/svg" xmlns:xlink="http://www.w3.org/1999/xlink" id="Isolation_Mode" x="0px" y="0px" viewBox="0 0 489 576.3" style="enable-background:new 0 0 489 576.3;" xml:space="preserve">
    <style type="text/css">
        .st0{fill:#D6DD33;}
        .st1{fill:#72BF44;}
        .st2{fill:#39B54A;}
    </style>
    <g opacity="0.5">
        <path class="st0" d="M158.9,319.6c95.6,65.9,155.3-127.1,227.1-154.1c34.7-13,66.1-8.2,91.9,8.2c-2.1,7.8-5.1,15.9-9.2,24.2  c-29,59.8-102.6,87.3-124.1,152.1c-7.5,22.5-5.1,44.2,3.8,61.1c-22.5,17.8-36.8,39.4-29.2,57.4c13.6,32.1,77.7,28.2,58.4,53.5  c-1.5,2-3.1,3.8-4.9,5.6C272,538.8,153.5,448.8,158.9,319.6"/>
        <path class="st1" d="M386,165.5c-71.8,27-131.5,220-227.1,154.1c0.5-12.8,2.3-25.9,5.3-39.4c14.5-63.4,62.6-101.3,109.7-138.8  c40.3-32.1,50.2-80.2,15.4-106.9c94.1-20.8,215.5,39.4,188.6,139.1C452.1,157.2,420.7,152.4,386,165.5"/>
        <path class="st2" d="M273.9,141.4c-47,37.5-95.1,75.4-109.7,138.8c-3.1,13.5-4.8,26.6-5.4,39.4c-4.5-3.1-9.1-6.8-13.7-11.1  C55.9,226.3,179.9,78.4,262.2,43.1c8.6-3.7,17.7-6.5,27-8.6C324.1,61.3,314.2,109.3,273.9,141.4"/>
        <path class="st1" d="M257,19.7c13.4,3.4,24,8.6,32.2,14.9c-9.3,2.1-18.4,4.9-27,8.6C179.9,78.4,55.9,226.3,145.2,308.5  c4.7,4.3,9.2,8,13.7,11.1c-5.4,129.3,113.1,219.2,214,208C292.4,610.9-40.7,521.2,18,209.5C38.2,102.3,164.2-4.2,257,19.7"/>
    </g>
</svg>
