<svg version="1.1" id="Layer_1" xmlns="http://www.w3.org/2000/svg" xmlns:xlink="http://www.w3.org/1999/xlink" x="0px" y="0px"
	 width="100%" viewBox="0 0 500 500" enable-background="new 0 0 500 500" xml:space="preserve">
<path fill="#000000" opacity="1.000000" stroke="none" 
	d="
M1.000000,190.000000 
	C1.000000,126.682358 1.000000,63.864712 1.000000,1.023533 
	C167.609360,1.023533 334.218719,1.023533 500.914062,1.023533 
	C500.914062,167.567703 500.914062,334.135468 500.914062,500.851624 
	C334.333435,500.851624 167.666733,500.851624 1.000000,500.851624 
	C1.000000,397.447815 1.000000,293.973907 1.000000,190.000000 
M493.972931,348.141785 
	C494.263855,338.190155 494.304413,328.223358 494.907440,318.290680 
	C495.707642,305.109650 497.466156,291.971130 497.868927,278.785492 
	C498.397858,261.469879 498.891113,244.066422 497.724884,226.813965 
	C496.837036,213.679779 494.168823,200.498138 490.728333,187.760147 
	C488.208099,178.429077 483.605560,169.560303 475.432739,163.223892 
	C472.565186,161.000671 473.494537,156.167480 476.726044,155.825943 
	C485.959900,154.850006 490.727448,148.195312 495.318970,141.566147 
	C500.294830,134.382065 498.385010,127.256104 491.073944,122.350906 
	C482.346497,116.495415 472.286102,115.270958 462.300903,113.540154 
	C451.848785,111.728409 442.308105,111.662514 437.217133,123.344208 
	C436.917603,124.031601 436.334106,124.595261 435.608734,125.593719 
	C434.933655,124.258949 434.429016,123.430260 434.077789,122.540985 
	C430.125580,112.533531 426.485840,102.390823 422.189240,92.534225 
	C416.755127,80.068283 410.807343,67.825783 405.052582,55.500225 
	C395.347961,34.714958 378.591614,25.199051 356.081177,23.852404 
	C344.029297,23.131420 332.076904,20.830278 320.061829,19.390448 
	C304.430908,17.517307 288.822296,15.062056 273.130371,14.202617 
	C256.680481,13.301663 240.128754,13.567138 223.649368,14.133238 
	C212.110229,14.529630 200.570251,15.940682 189.115402,17.515228 
	C170.715881,20.044369 152.419891,23.330561 134.015854,25.821823 
	C121.350014,27.536333 111.462372,33.538555 104.476341,43.893818 
	C91.854149,62.603436 83.656349,83.535751 75.273605,104.331795 
	C72.464859,111.299774 70.036957,118.421265 67.127281,126.306427 
	C64.652428,122.719383 62.516487,120.153168 60.987118,117.265678 
	C59.280094,114.042763 56.966839,112.680367 53.375309,112.944710 
	C47.587605,113.370697 41.631866,112.900414 36.028576,114.111275 
	C28.165537,115.810455 19.997429,117.635277 12.977435,121.336479 
	C2.558183,126.829887 2.033487,138.510284 10.902459,145.981598 
	C16.543610,150.733749 22.347521,155.292694 28.105629,159.960297 
	C28.053562,160.224579 28.059841,160.585999 27.911282,160.864975 
	C27.600868,161.447922 27.300678,162.082550 26.836689,162.530716 
	C16.239637,172.766495 10.719795,185.767365 8.339320,199.826859 
	C5.044592,219.286133 3.679301,238.970016 4.937721,258.772430 
	C6.421065,282.114227 7.896948,305.461273 8.915900,328.826141 
	C9.647613,345.604492 9.624445,362.415741 9.322136,379.670349 
	C8.844783,384.927399 9.284744,389.867462 14.407501,393.900482 
	C16.934322,394.599792 19.461143,395.299103 22.513119,396.671234 
	C43.588062,396.770172 64.662979,396.878754 85.738037,396.927216 
	C86.462318,396.928894 87.187996,396.328674 88.636253,396.104645 
	C98.703850,397.531281 102.205490,392.714081 104.388092,374.348572 
	C116.518745,373.199158 128.658707,372.048859 141.704483,370.812744 
	C121.707481,351.989105 107.623093,330.682526 98.511398,305.118927 
	C87.410393,305.111633 76.309387,305.104309 64.420792,305.026093 
	C59.756557,304.331146 59.792587,300.829346 60.108658,297.424622 
	C60.444096,293.811340 63.088264,292.236511 66.329910,292.113251 
	C72.319542,291.885529 78.322739,292.010803 84.320297,291.996460 
	C87.709694,291.988342 91.099121,291.994995 94.657104,291.994995 
	C93.322395,283.304565 92.142365,275.621277 90.543236,267.182526 
	C80.464081,267.171722 70.384933,267.160889 59.515606,267.009705 
	C55.706913,264.857544 50.178356,263.626068 48.434521,260.368530 
	C44.344814,252.728790 41.385540,244.288223 39.290932,235.843842 
	C37.855228,230.055817 40.870495,227.403259 47.079391,227.018707 
	C50.026802,226.836151 53.041866,227.118393 55.979874,227.525238 
	C66.151375,228.933762 76.300117,230.505829 86.462608,231.980652 
	C90.278976,232.534515 92.422417,231.413910 93.300667,227.065475 
	C94.936417,218.966415 96.992043,210.906479 99.546989,203.049469 
	C103.385056,191.246582 108.664833,180.010468 115.987213,169.947388 
	C121.716698,162.073410 127.728256,154.344330 134.257065,147.132599 
	C138.955032,141.943207 144.761810,137.766937 149.952209,133.006027 
	C150.971756,132.070847 151.433731,130.527802 152.815201,128.102066 
	C132.081802,129.274567 112.729683,130.368958 92.755112,131.498566 
	C93.793510,128.011398 94.283867,125.362755 95.343513,122.965782 
	C103.320763,104.920914 111.720085,87.055237 119.330078,68.858612 
	C122.990883,60.105114 129.372543,55.284149 137.952103,53.363003 
	C167.169800,46.820515 196.856934,43.332195 226.721832,42.192955 
	C246.261734,41.447571 265.902039,41.792824 285.433624,42.839546 
	C302.298889,43.743366 319.101776,46.110916 335.878021,48.255302 
	C344.884216,49.406498 353.727020,51.848789 362.735718,52.963657 
	C369.782318,53.835712 375.550201,56.264484 379.029449,62.537903 
	C384.168610,71.804306 389.486664,81.024017 393.818604,90.672157 
	C399.113464,102.464920 403.603210,114.629051 408.158447,126.738922 
	C409.863708,131.272354 408.466522,132.356705 403.686615,131.719238 
	C397.781647,130.931747 391.832275,130.409286 385.885925,130.017685 
	C378.822723,129.552567 371.741608,129.363464 364.669586,129.026840 
	C357.825714,128.701096 350.983490,128.339920 344.140564,127.994293 
	C378.495300,155.188217 398.232666,190.432053 406.587738,232.951599 
	C409.352905,232.650421 411.952820,232.433914 414.532928,232.074921 
	C427.339325,230.293137 440.121094,228.317764 452.950439,226.723587 
	C461.227264,225.695114 465.713623,231.397125 463.239685,239.491562 
	C461.979248,243.615555 460.230621,247.589172 458.937347,251.704529 
	C455.888062,261.407654 449.434937,266.614441 439.222076,267.006653 
	C429.966736,267.362152 420.711731,267.781433 411.452545,267.947510 
	C408.407257,268.002106 407.056305,268.718903 406.863190,272.113342 
	C406.601196,276.717712 405.674927,281.307007 404.750153,285.845001 
	C403.684692,291.073181 404.264984,291.847107 409.748657,292.013275 
	C418.551514,292.279999 427.392487,292.286316 436.124420,293.247253 
	C438.537964,293.512878 441.653198,296.410431 442.479370,298.784851 
	C442.992279,300.258972 440.114227,303.375305 438.163208,305.069275 
	C437.010345,306.070251 434.698944,305.950592 432.905640,305.964600 
	C423.119202,306.041077 413.328613,305.873718 403.547760,306.120148 
	C401.746216,306.165497 399.135162,307.260254 398.357452,308.673737 
	C395.808228,313.307037 394.000549,318.342377 391.768738,323.158691 
	C390.598450,325.684204 391.493805,326.914764 393.665741,328.403168 
	C400.166016,332.857666 407.027863,337.023071 412.694946,342.409790 
	C429.071014,357.975555 445.203278,373.822876 460.848297,390.119293 
	C466.460449,395.965088 471.976196,397.894653 479.810760,396.501465 
	C487.835602,395.074493 490.436157,393.351837 492.596558,384.502441 
	C493.040710,372.687439 493.484863,360.872406 493.972931,348.141785 
M143.478531,356.019745 
	C167.966614,380.946930 197.602463,395.129669 232.322006,399.041290 
	C267.281128,402.979919 299.483246,395.034882 329.294434,377.127686 
	C330.551819,381.862976 331.659454,386.407684 332.971008,390.892731 
	C335.386536,399.152985 341.664551,404.457001 347.552979,410.190521 
	C369.740936,431.794891 392.045868,453.294037 413.704529,475.422272 
	C429.917114,491.986420 456.100494,491.616638 472.892456,475.823517 
	C488.824463,460.839233 489.448639,432.903381 473.496246,417.823395 
	C457.320038,402.531799 441.582245,386.775177 425.713348,371.160278 
	C417.338898,362.919830 409.459900,354.130646 400.646057,346.399994 
	C395.807922,342.156494 389.683777,339.184174 383.766174,336.445282 
	C380.614563,334.986633 376.668091,335.245331 373.400726,334.774994 
	C377.477814,326.400085 381.416504,318.618073 385.082916,310.709778 
	C391.419800,297.041351 394.779663,282.482513 395.829987,267.592041 
	C396.525208,257.735748 395.555695,247.735321 394.965668,237.821198 
	C394.017731,221.893692 389.184418,206.936569 382.285156,192.705536 
	C373.673248,174.941910 362.263702,159.356277 347.105164,146.305405 
	C332.969360,134.135056 317.355530,124.888542 300.018707,118.499634 
	C287.947632,114.051239 275.412018,111.920242 262.479187,110.704659 
	C245.185638,109.079208 228.242477,110.029419 211.642929,114.256142 
	C194.329147,118.664749 178.171722,125.953995 163.493286,136.595749 
	C152.747864,144.386093 142.713211,152.890793 134.466827,163.130447 
	C123.364311,176.916580 114.194092,192.095184 109.425522,209.304077 
	C106.233040,220.825180 103.386154,232.623047 102.224632,244.477371 
	C100.943314,257.554169 102.129730,270.730164 104.860725,283.800659 
	C110.645966,311.488739 123.150925,335.398132 143.478531,356.019745 
M153.661682,129.513580 
	C153.661682,129.513580 153.435532,129.391800 153.435532,129.391800 
	C153.435532,129.391800 153.474152,129.648346 153.661682,129.513580 
z"/>
<path fill="#14171A" opacity="1.000000" stroke="none" 
	d="
M492.016479,385.141907 
	C490.436157,393.351837 487.835602,395.074493 479.810760,396.501465 
	C471.976196,397.894653 466.460449,395.965088 460.848297,390.119293 
	C445.203278,373.822876 429.071014,357.975555 412.694946,342.409790 
	C407.027863,337.023071 400.166016,332.857666 393.665741,328.403168 
	C391.493805,326.914764 390.598450,325.684204 391.768738,323.158691 
	C394.000549,318.342377 395.808228,313.307037 398.357452,308.673737 
	C399.135162,307.260254 401.746216,306.165497 403.547760,306.120148 
	C413.328613,305.873718 423.119202,306.041077 432.905640,305.964600 
	C434.698944,305.950592 437.010345,306.070251 438.163208,305.069275 
	C440.114227,303.375305 442.992279,300.258972 442.479370,298.784851 
	C441.653198,296.410431 438.537964,293.512878 436.124420,293.247253 
	C427.392487,292.286316 418.551514,292.279999 409.748657,292.013275 
	C404.264984,291.847107 403.684692,291.073181 404.750153,285.845001 
	C405.674927,281.307007 406.601196,276.717712 406.863190,272.113342 
	C407.056305,268.718903 408.407257,268.002106 411.452545,267.947510 
	C420.711731,267.781433 429.966736,267.362152 439.222076,267.006653 
	C449.434937,266.614441 455.888062,261.407654 458.937347,251.704529 
	C460.230621,247.589172 461.979248,243.615555 463.239685,239.491562 
	C465.713623,231.397125 461.227264,225.695114 452.950439,226.723587 
	C440.121094,228.317764 427.339325,230.293137 414.532928,232.074921 
	C411.952820,232.433914 409.352905,232.650421 406.587738,232.951599 
	C398.232666,190.432053 378.495300,155.188217 344.140564,127.994293 
	C350.983490,128.339920 357.825714,128.701096 364.669586,129.026840 
	C371.741608,129.363464 378.822723,129.552567 385.885925,130.017685 
	C391.832275,130.409286 397.781647,130.931747 403.686615,131.719238 
	C408.466522,132.356705 409.863708,131.272354 408.158447,126.738922 
	C403.603210,114.629051 399.113464,102.464920 393.818604,90.672157 
	C389.486664,81.024017 384.168610,71.804306 379.029449,62.537903 
	C375.550201,56.264484 369.782318,53.835712 362.735718,52.963657 
	C353.727020,51.848789 344.884216,49.406498 335.878021,48.255302 
	C319.101776,46.110916 302.298889,43.743366 285.433624,42.839546 
	C265.902039,41.792824 246.261734,41.447571 226.721832,42.192955 
	C196.856934,43.332195 167.169800,46.820515 137.952103,53.363003 
	C129.372543,55.284149 122.990883,60.105114 119.330078,68.858612 
	C111.720085,87.055237 103.320763,104.920914 95.343513,122.965782 
	C94.283867,125.362755 93.793510,128.011398 92.755112,131.498566 
	C112.729683,130.368958 132.081802,129.274567 152.815201,128.102066 
	C151.433731,130.527802 150.971756,132.070847 149.952209,133.006027 
	C144.761810,137.766937 138.955032,141.943207 134.257065,147.132599 
	C127.728256,154.344330 121.716698,162.073410 115.987213,169.947388 
	C108.664833,180.010468 103.385056,191.246582 99.546989,203.049469 
	C96.992043,210.906479 94.936417,218.966415 93.300667,227.065475 
	C92.422417,231.413910 90.278976,232.534515 86.462608,231.980652 
	C76.300117,230.505829 66.151375,228.933762 55.979874,227.525238 
	C53.041866,227.118393 50.026802,226.836151 47.079391,227.018707 
	C40.870495,227.403259 37.855228,230.055817 39.290932,235.843842 
	C41.385540,244.288223 44.344814,252.728790 48.434521,260.368530 
	C50.178356,263.626068 55.706913,264.857544 60.220436,267.321594 
	C70.937622,267.734985 80.949982,267.836487 90.962334,267.938019 
	C92.142365,275.621277 93.322395,283.304565 94.657104,291.994995 
	C91.099121,291.994995 87.709694,291.988342 84.320297,291.996460 
	C78.322739,292.010803 72.319542,291.885529 66.329910,292.113251 
	C63.088264,292.236511 60.444096,293.811340 60.108658,297.424622 
	C59.792587,300.829346 59.756557,304.331146 65.028854,305.417297 
	C76.735367,305.828369 87.833817,305.848236 98.932266,305.868134 
	C107.623093,330.682526 121.707481,351.989105 141.704483,370.812744 
	C128.658707,372.048859 116.518745,373.199158 104.388092,374.348572 
	C102.205490,392.714081 98.703850,397.531281 87.813461,396.055725 
	C65.323097,396.003998 43.655533,396.001190 21.987967,395.998413 
	C19.461143,395.299103 16.934322,394.599792 14.305910,393.176636 
	C12.782224,388.039307 11.360127,383.625824 9.938033,379.212311 
	C9.624445,362.415741 9.647613,345.604492 8.915900,328.826141 
	C7.896948,305.461273 6.421065,282.114227 4.937721,258.772430 
	C3.679301,238.970016 5.044592,219.286133 8.339320,199.826859 
	C10.719795,185.767365 16.239637,172.766495 26.836689,162.530716 
	C27.300678,162.082550 27.600868,161.447922 27.911282,160.864975 
	C28.059841,160.585999 28.053562,160.224579 28.105629,159.960297 
	C22.347521,155.292694 16.543610,150.733749 10.902459,145.981598 
	C2.033487,138.510284 2.558183,126.829887 12.977435,121.336479 
	C19.997429,117.635277 28.165537,115.810455 36.028576,114.111275 
	C41.631866,112.900414 47.587605,113.370697 53.375309,112.944710 
	C56.966839,112.680367 59.280094,114.042763 60.987118,117.265678 
	C62.516487,120.153168 64.652428,122.719383 67.127281,126.306427 
	C70.036957,118.421265 72.464859,111.299774 75.273605,104.331795 
	C83.656349,83.535751 91.854149,62.603436 104.476341,43.893818 
	C111.462372,33.538555 121.350014,27.536333 134.015854,25.821823 
	C152.419891,23.330561 170.715881,20.044369 189.115402,17.515228 
	C200.570251,15.940682 212.110229,14.529630 223.649368,14.133238 
	C240.128754,13.567138 256.680481,13.301663 273.130371,14.202617 
	C288.822296,15.062056 304.430908,17.517307 320.061829,19.390448 
	C332.076904,20.830278 344.029297,23.131420 356.081177,23.852404 
	C378.591614,25.199051 395.347961,34.714958 405.052582,55.500225 
	C410.807343,67.825783 416.755127,80.068283 422.189240,92.534225 
	C426.485840,102.390823 430.125580,112.533531 434.077789,122.540985 
	C434.429016,123.430260 434.933655,124.258949 435.608734,125.593719 
	C436.334106,124.595261 436.917603,124.031601 437.217133,123.344208 
	C442.308105,111.662514 451.848785,111.728409 462.300903,113.540154 
	C472.286102,115.270958 482.346497,116.495415 491.073944,122.350906 
	C498.385010,127.256104 500.294830,134.382065 495.318970,141.566147 
	C490.727448,148.195312 485.959900,154.850006 476.726044,155.825943 
	C473.494537,156.167480 472.565186,161.000671 475.432739,163.223892 
	C483.605560,169.560303 488.208099,178.429077 490.728333,187.760147 
	C494.168823,200.498138 496.837036,213.679779 497.724884,226.813965 
	C498.891113,244.066422 498.397858,261.469879 497.868927,278.785492 
	C497.466156,291.971130 495.707642,305.109650 494.907440,318.290680 
	C494.304413,328.223358 494.263855,338.190155 493.595734,348.741638 
	C492.811798,351.025330 492.070221,352.705811 492.053101,354.393585 
	C491.949188,364.642120 492.010406,374.892273 492.016479,385.141907 
z"/>
<path fill="#8E8E8E" opacity="1.000000" stroke="none" 
	d="
M143.226837,355.771057 
	C123.150925,335.398132 110.645966,311.488739 104.860725,283.800659 
	C102.129730,270.730164 100.943314,257.554169 102.224632,244.477371 
	C103.386154,232.623047 106.233040,220.825180 109.425522,209.304077 
	C114.194092,192.095184 123.364311,176.916580 134.466827,163.130447 
	C142.713211,152.890793 152.747864,144.386093 163.493286,136.595749 
	C178.171722,125.953995 194.329147,118.664749 211.642929,114.256142 
	C228.242477,110.029419 245.185638,109.079208 262.479187,110.704659 
	C275.412018,111.920242 287.947632,114.051239 300.018707,118.499634 
	C317.355530,124.888542 332.969360,134.135056 347.105164,146.305405 
	C362.263702,159.356277 373.673248,174.941910 382.285156,192.705536 
	C389.184418,206.936569 394.017731,221.893692 394.965668,237.821198 
	C395.555695,247.735321 396.525208,257.735748 395.829987,267.592041 
	C394.779663,282.482513 391.419800,297.041351 385.082916,310.709778 
	C381.416504,318.618073 377.477814,326.400085 373.400726,334.774994 
	C376.668091,335.245331 380.614563,334.986633 383.766174,336.445282 
	C389.683777,339.184174 395.807922,342.156494 400.646057,346.399994 
	C409.459900,354.130646 417.338898,362.919830 425.713348,371.160278 
	C441.582245,386.775177 457.320038,402.531799 473.496246,417.823395 
	C489.448639,432.903381 488.824463,460.839233 472.892456,475.823517 
	C456.100494,491.616638 429.917114,491.986420 413.704529,475.422272 
	C392.045868,453.294037 369.740936,431.794891 347.552979,410.190521 
	C341.664551,404.457001 335.386536,399.152985 332.971008,390.892731 
	C331.659454,386.407684 330.551819,381.862976 329.294434,377.127686 
	C299.483246,395.034882 267.281128,402.979919 232.322006,399.041290 
	C197.602463,395.129669 167.966614,380.946930 143.226837,355.771057 
M169.908859,169.714462 
	C167.399048,172.225281 164.772354,174.630814 162.399658,177.265152 
	C152.146317,188.649170 143.812561,201.237350 138.971100,215.893036 
	C131.469879,238.600098 130.528061,261.775177 136.255615,284.834778 
	C141.275986,305.047272 151.706329,322.801941 166.336472,337.595032 
	C177.376617,348.758118 190.968048,356.736755 205.461624,362.613098 
	C223.988708,370.124908 243.524048,372.886749 263.311829,369.816589 
	C283.925964,366.618164 303.393036,360.147247 320.060486,346.601593 
	C335.282745,334.230469 347.225525,319.445129 355.898865,301.964539 
	C366.399170,280.801666 368.265259,258.466095 363.885162,235.564713 
	C360.434235,217.521652 354.255341,200.670624 342.571655,185.901672 
	C330.764984,170.977203 317.120056,158.969666 299.766785,150.762329 
	C283.581848,143.107544 266.613098,139.868378 249.053238,139.141998 
	C242.408325,138.867142 235.695999,140.221848 228.670029,140.146271 
	C223.479965,139.923508 218.195236,138.961563 213.116959,139.611801 
	C195.459778,141.872620 182.725616,152.835693 170.800217,164.881546 
	C169.998703,165.691147 170.342606,167.634705 169.908859,169.714462 
z"/>
<path fill="#3F4346" opacity="1.000000" stroke="none" 
	d="
M22.250544,396.334808 
	C43.655533,396.001190 65.323097,396.003998 87.451843,396.007935 
	C87.187996,396.328674 86.462318,396.928894 85.738037,396.927216 
	C64.662979,396.878754 43.588062,396.770172 22.250544,396.334808 
z"/>
<path fill="#262529" opacity="1.000000" stroke="none" 
	d="
M492.306519,384.822174 
	C492.010406,374.892273 491.949188,364.642120 492.053101,354.393585 
	C492.070221,352.705811 492.811798,351.025330 493.573792,349.199463 
	C493.484863,360.872406 493.040710,372.687439 492.306519,384.822174 
z"/>
<path fill="#A3A3A5" opacity="1.000000" stroke="none" 
	d="
M9.630084,379.441345 
	C11.360127,383.625824 12.782224,388.039307 14.120962,392.885071 
	C9.284744,389.867462 8.844783,384.927399 9.630084,379.441345 
z"/>
<path fill="#D2D4D5" opacity="1.000000" stroke="none" 
	d="
M98.721832,305.493530 
	C87.833817,305.848236 76.735367,305.828369 65.422653,305.452728 
	C76.309387,305.104309 87.410393,305.111633 98.721832,305.493530 
z"/>
<path fill="#838384" opacity="1.000000" stroke="none" 
	d="
M90.752785,267.560272 
	C80.949982,267.836487 70.937622,267.734985 60.615524,267.391754 
	C70.384933,267.160889 80.464081,267.171722 90.752785,267.560272 
z"/>
<path fill="#14171A" opacity="1.000000" stroke="none" 
	d="
M153.567917,129.580963 
	C153.474152,129.648346 153.435532,129.391800 153.435532,129.391800 
	C153.435532,129.391800 153.661682,129.513580 153.567917,129.580963 
z"/>
<path fill="#000000" opacity="1.000000" stroke="none" 
	d="
M229.014404,140.833755 
	C235.695999,140.221848 242.408325,138.867142 249.053238,139.141998 
	C266.613098,139.868378 283.581848,143.107544 299.766785,150.762329 
	C317.120056,158.969666 330.764984,170.977203 342.571655,185.901672 
	C354.255341,200.670624 360.434235,217.521652 363.885162,235.564713 
	C368.265259,258.466095 366.399170,280.801666 355.898865,301.964539 
	C347.225525,319.445129 335.282745,334.230469 320.060486,346.601593 
	C303.393036,360.147247 283.925964,366.618164 263.311829,369.816589 
	C243.524048,372.886749 223.988708,370.124908 205.461624,362.613098 
	C190.968048,356.736755 177.376617,348.758118 166.336472,337.595032 
	C151.706329,322.801941 141.275986,305.047272 136.255615,284.834778 
	C130.528061,261.775177 131.469879,238.600098 138.971100,215.893036 
	C143.812561,201.237350 152.146317,188.649170 162.399658,177.265152 
	C164.772354,174.630814 167.399048,172.225281 170.324982,169.224457 
	C177.110748,164.156082 183.186447,159.072632 189.935013,155.145416 
	C196.321548,151.428879 203.277390,148.552307 210.237717,146.001862 
	C216.312225,143.775986 222.741745,142.518890 229.014404,140.833755 
M256.082397,336.016418 
	C241.038040,336.001312 225.993607,335.961212 210.949493,336.015350 
	C209.650040,336.020020 208.352798,336.648376 206.110672,336.996948 
	C199.734253,336.996948 193.357849,336.996948 186.143097,336.996948 
	C202.236099,351.647552 234.143341,362.921814 269.451050,356.987274 
	C284.854401,354.398254 307.412842,343.931824 310.515594,336.981384 
	C306.773956,336.981384 303.349640,336.981384 299.595703,336.174744 
	C285.400543,336.172211 271.205414,336.169678 256.082397,336.016418 
M265.758606,305.936920 
	C269.552765,306.084686 271.256165,304.311188 271.021149,300.479645 
	C270.866364,297.956299 270.991852,295.415802 270.991852,292.882965 
	C271.423279,292.854004 271.854736,292.825012 272.286163,292.796021 
	C272.763306,293.774963 273.356018,294.715668 273.694672,295.740387 
	C274.523254,298.247406 274.768799,301.099030 276.158447,303.214600 
	C277.066803,304.597443 279.565338,304.935699 281.351593,305.741821 
	C281.628693,304.169800 282.424896,302.470673 282.077484,301.051575 
	C281.294434,297.853333 280.291656,294.607147 278.739197,291.724670 
	C276.777740,288.082855 276.961029,284.931519 278.927399,281.415558 
	C280.317963,278.929138 281.106812,276.106171 282.192139,273.362946 
	C273.728394,271.376404 274.889099,279.556824 271.294006,282.875763 
	C270.525513,273.187836 270.525513,273.187836 264.427429,273.726807 
	C264.292633,278.805725 264.157837,283.884674 264.002441,289.657745 
	C264.011749,290.120544 264.021057,290.583313 264.010468,291.966522 
	C264.321106,296.613159 264.631744,301.259796 265.758606,305.936920 
M248.419388,305.389099 
	C248.605621,301.924866 248.814209,298.461609 248.970718,294.996033 
	C249.089020,292.377075 247.868561,291.699615 245.257431,291.842957 
	C239.946655,292.134613 234.610443,292.018280 229.285828,291.962799 
	C227.971054,291.949127 226.660568,291.524353 224.513763,291.138702 
	C227.938614,287.268494 230.826187,284.363434 233.300262,281.140930 
	C240.078842,272.311737 246.730743,263.445465 248.139130,251.799469 
	C249.685959,239.008606 242.151520,228.659012 230.304901,227.716919 
	C214.986145,226.498703 208.113953,235.876373 207.099533,248.590149 
	C206.467636,256.509857 206.912628,256.545349 214.638245,256.902374 
	C220.516068,257.174011 221.714493,256.122650 222.055710,250.493134 
	C222.146088,249.002090 221.888123,247.197922 222.627548,246.103180 
	C223.897430,244.223022 225.758087,241.602142 227.497498,241.502411 
	C229.205292,241.404480 232.378860,243.885452 232.597626,245.540253 
	C233.067291,249.093155 233.076752,253.402863 231.441483,256.403778 
	C227.048141,264.466095 222.071732,272.284332 216.614166,279.673096 
	C210.715363,287.659210 204.883987,295.368866 207.508102,306.878479 
	C220.157578,306.916870 232.807068,306.973114 245.456436,306.952179 
	C246.268707,306.950836 247.079971,306.352997 248.419388,305.389099 
M156.167450,257.405701 
	C156.103165,265.460754 155.998474,273.515900 156.020813,281.570709 
	C156.023941,282.698273 156.650330,283.824127 156.975220,285.814667 
	C156.653198,293.997009 160.206787,299.721771 166.974808,304.465149 
	C174.398026,309.667725 187.124603,308.705627 192.649170,301.619843 
	C198.322266,294.343567 199.628540,286.005402 198.978851,277.164490 
	C198.151855,265.910828 193.215729,256.707306 179.036682,257.935211 
	C171.646393,258.575195 171.376083,257.964844 172.062943,250.274521 
	C172.195297,248.792679 171.981583,246.976517 172.755463,245.922379 
	C174.111649,244.075012 175.904236,242.122223 177.935623,241.400894 
	C178.776306,241.102356 181.085968,243.645309 182.028748,245.295258 
	C182.965363,246.934433 183.024246,249.075150 183.507996,251.168930 
	C184.568970,251.410492 185.672913,251.779282 186.803452,251.901047 
	C198.150528,253.123169 199.787354,250.737717 196.028168,239.977325 
	C191.329987,226.529160 171.403000,223.490341 163.027267,234.156067 
	C157.499588,241.195023 156.963806,248.914291 156.167450,257.405701 
M300.896271,306.979675 
	C306.701019,306.946716 312.538208,307.296570 318.304413,306.808319 
	C334.940704,305.399628 339.343811,302.254761 341.035950,285.448212 
	C342.453156,271.372284 341.488495,256.982819 340.659393,242.785843 
	C340.249298,235.764023 333.994904,230.608948 326.753143,230.059830 
	C317.841553,229.384079 308.879272,229.376755 299.422943,229.709564 
	C299.285156,230.520035 299.027740,231.330383 299.026947,232.140991 
	C299.003845,255.844055 298.991913,279.547150 299.045563,303.250122 
	C299.048370,304.486450 299.644348,305.721466 300.896271,306.979675 
M167.511719,189.067596 
	C167.323929,189.405182 167.136139,189.742767 166.600449,190.643539 
	C165.117310,192.713318 163.634171,194.783096 162.151016,196.852859 
	C162.350555,197.360596 162.550095,197.868317 162.749634,198.376038 
	C194.213684,198.559906 225.677734,198.743774 258.057922,199.007507 
	C274.675842,198.991623 291.293762,198.975739 308.788147,198.975815 
	C317.651520,198.477890 326.514893,197.979965 336.618835,197.412354 
	C320.129242,174.244492 299.029968,159.523758 272.400757,153.718521 
	C239.138977,146.467361 209.041611,154.693008 181.530487,175.227600 
	C181.269882,175.482376 181.009293,175.737137 180.212479,176.345978 
	C176.134506,180.466995 172.056534,184.588013 167.511719,189.067596 
M276.068695,230.526276 
	C274.908112,229.388458 273.884949,227.622147 272.539917,227.328125 
	C271.603027,227.123337 269.460205,228.741013 269.165192,229.882812 
	C266.941345,238.489578 264.940063,247.159424 263.165436,255.869904 
	C262.932922,257.011230 264.382477,258.495270 265.052948,259.820557 
	C266.403564,259.013824 267.931702,258.398102 269.058472,257.350555 
	C270.376251,256.125488 271.344116,254.524017 272.463776,253.085846 
	C273.518188,254.538071 274.390442,256.186646 275.681183,257.384155 
	C276.840118,258.459351 278.458954,259.038849 279.874908,259.837036 
	C280.481506,258.388763 281.823975,256.797455 281.574799,255.515518 
	C279.999725,247.412430 278.071930,239.377884 276.068695,230.526276 
z"/>
<path fill="#838384" opacity="1.000000" stroke="none" 
	d="
M228.842224,140.490021 
	C222.741745,142.518890 216.312225,143.775986 210.237717,146.001862 
	C203.277390,148.552307 196.321548,151.428879 189.935013,155.145416 
	C183.186447,159.072632 177.110748,164.156082 170.447449,168.892670 
	C170.342606,167.634705 169.998703,165.691147 170.800217,164.881546 
	C182.725616,152.835693 195.459778,141.872620 213.116959,139.611801 
	C218.195236,138.961563 223.479965,139.923508 228.842224,140.490021 
z"/>
<path fill="#13171A" opacity="1.000000" stroke="none" 
	d="
M182.019348,174.985596 
	C209.041611,154.693008 239.138977,146.467361 272.400757,153.718521 
	C299.029968,159.523758 320.129242,174.244492 336.618835,197.412354 
	C326.514893,197.979965 317.651520,198.477890 308.152924,198.586639 
	C291.409363,198.130371 275.301025,198.051743 259.192657,198.035934 
	C258.509338,198.035263 257.825409,198.617142 257.141785,198.927628 
	C225.677734,198.743774 194.213684,198.559906 162.749634,198.376038 
	C162.550095,197.868317 162.350555,197.360596 162.151016,196.852859 
	C163.634171,194.783096 165.117310,192.713318 167.009247,190.186218 
	C167.604889,189.388931 167.791718,189.048965 167.978546,188.709015 
	C172.056534,184.588013 176.134506,180.466995 180.733337,176.053528 
	C181.509232,175.502579 181.764282,175.244080 182.019348,174.985596 
z"/>
<path fill="#14171A" opacity="1.000000" stroke="none" 
	d="
M299.938904,229.080536 
	C308.879272,229.376755 317.841553,229.384079 326.753143,230.059830 
	C333.994904,230.608948 340.249298,235.764023 340.659393,242.785843 
	C341.488495,256.982819 342.453156,271.372284 341.035950,285.448212 
	C339.343811,302.254761 334.940704,305.399628 318.304413,306.808319 
	C312.538208,307.296570 306.701019,306.946716 300.447693,306.504211 
	C299.979034,280.379364 299.958954,254.729935 299.938904,229.080536 
M326.518097,284.242035 
	C326.675171,273.141327 326.877472,262.040894 326.946320,250.939651 
	C326.958282,249.013412 326.405945,247.083664 325.788330,244.518326 
	C323.585205,240.613586 320.082550,239.575180 315.313599,240.625595 
	C315.223816,257.977936 315.123138,275.330261 315.082458,292.682709 
	C315.080750,293.411133 315.638489,294.140900 316.469757,295.303101 
	C325.375427,294.741028 325.808228,294.314850 326.020477,285.903900 
	C326.028870,285.571381 326.049561,285.239197 326.518097,284.242035 
z"/>
<path fill="#15181B" opacity="1.000000" stroke="none" 
	d="
M156.977386,257.083832 
	C156.963806,248.914291 157.499588,241.195023 163.027267,234.156067 
	C171.403000,223.490341 191.329987,226.529160 196.028168,239.977325 
	C199.787354,250.737717 198.150528,253.123169 186.803452,251.901047 
	C185.672913,251.779282 184.568970,251.410492 183.507996,251.168930 
	C183.024246,249.075150 182.965363,246.934433 182.028748,245.295258 
	C181.085968,243.645309 178.776306,241.102356 177.935623,241.400894 
	C175.904236,242.122223 174.111649,244.075012 172.755463,245.922379 
	C171.981583,246.976517 172.195297,248.792679 172.062943,250.274521 
	C171.376083,257.964844 171.646393,258.575195 179.036682,257.935211 
	C193.215729,256.707306 198.151855,265.910828 198.978851,277.164490 
	C199.628540,286.005402 198.322266,294.343567 192.649170,301.619843 
	C187.124603,308.705627 174.398026,309.667725 166.974808,304.465149 
	C160.206787,299.721771 156.653198,293.997009 157.003387,284.917664 
	C157.013504,275.041687 156.995438,266.062775 156.977386,257.083832 
M174.082321,293.241882 
	C178.129196,296.237213 180.973724,294.803070 182.625488,290.597198 
	C184.898361,284.809814 185.104431,278.837799 181.978851,273.350433 
	C181.110092,271.825195 178.112213,270.210266 176.680298,270.632843 
	C174.826584,271.179901 172.304077,273.706573 172.275650,275.417572 
	C172.180420,281.149323 173.066910,286.897369 174.082321,293.241882 
z"/>
<path fill="#14171A" opacity="1.000000" stroke="none" 
	d="
M207.073456,306.140747 
	C204.883987,295.368866 210.715363,287.659210 216.614166,279.673096 
	C222.071732,272.284332 227.048141,264.466095 231.441483,256.403778 
	C233.076752,253.402863 233.067291,249.093155 232.597626,245.540253 
	C232.378860,243.885452 229.205292,241.404480 227.497498,241.502411 
	C225.758087,241.602142 223.897430,244.223022 222.627548,246.103180 
	C221.888123,247.197922 222.146088,249.002090 222.055710,250.493134 
	C221.714493,256.122650 220.516068,257.174011 214.638245,256.902374 
	C206.912628,256.545349 206.467636,256.509857 207.099533,248.590149 
	C208.113953,235.876373 214.986145,226.498703 230.304901,227.716919 
	C242.151520,228.659012 249.685959,239.008606 248.139130,251.799469 
	C246.730743,263.445465 240.078842,272.311737 233.300262,281.140930 
	C230.826187,284.363434 227.938614,287.268494 224.513763,291.138702 
	C226.660568,291.524353 227.971054,291.949127 229.285828,291.962799 
	C234.610443,292.018280 239.946655,292.134613 245.257431,291.842957 
	C247.868561,291.699615 249.089020,292.377075 248.970718,294.996033 
	C248.814209,298.461609 248.605621,301.924866 247.693817,305.700165 
	C233.669998,306.054413 220.371719,306.097565 207.073456,306.140747 
z"/>
<path fill="#15191C" opacity="1.000000" stroke="none" 
	d="
M299.925323,336.981384 
	C303.349640,336.981384 306.773956,336.981384 310.515594,336.981384 
	C307.412842,343.931824 284.854401,354.398254 269.451050,356.987274 
	C234.143341,362.921814 202.236099,351.647552 186.143097,336.996948 
	C193.357849,336.996948 199.734253,336.996948 207.047119,337.018341 
	C224.326324,336.969177 240.669098,336.898621 257.475952,336.891968 
	C271.935120,336.964386 285.930206,336.972870 299.925323,336.981384 
z"/>
<path fill="#14171B" opacity="1.000000" stroke="none" 
	d="
M264.030365,291.046112 
	C264.021057,290.583313 264.011749,290.120544 264.250610,288.978821 
	C264.645599,283.234314 264.792389,278.168671 264.939178,273.103058 
	C270.525513,273.187836 270.525513,273.187836 271.294006,282.875763 
	C274.889099,279.556824 273.728394,271.376404 282.192139,273.362946 
	C281.106812,276.106171 280.317963,278.929138 278.927399,281.415558 
	C276.961029,284.931519 276.777740,288.082855 278.739197,291.724670 
	C280.291656,294.607147 281.294434,297.853333 282.077484,301.051575 
	C282.424896,302.470673 281.628693,304.169800 281.351624,305.741821 
	C279.565338,304.935699 277.066803,304.597443 276.158447,303.214600 
	C274.768799,301.099030 274.523254,298.247406 273.694672,295.740387 
	C273.356018,294.715668 272.763306,293.774963 272.286163,292.796021 
	C271.854736,292.825012 271.423279,292.854004 270.991852,292.882965 
	C270.991852,295.415802 270.866364,297.956299 271.021149,300.479645 
	C271.256165,304.311188 269.552765,306.084686 265.366272,305.466553 
	C264.659393,300.346191 264.344879,295.696136 264.030365,291.046112 
z"/>
<path fill="#181B1F" opacity="1.000000" stroke="none" 
	d="
M276.164612,230.923492 
	C278.071930,239.377884 279.999725,247.412430 281.574799,255.515518 
	C281.823975,256.797455 280.481506,258.388763 279.874908,259.837036 
	C278.458954,259.038849 276.840118,258.459351 275.681183,257.384155 
	C274.390442,256.186646 273.518188,254.538071 272.463745,253.085846 
	C271.344116,254.524017 270.376251,256.125488 269.058472,257.350555 
	C267.931702,258.398102 266.403564,259.013824 265.052948,259.820557 
	C264.382477,258.495270 262.932922,257.011230 263.165436,255.869904 
	C264.940063,247.159424 266.941345,238.489578 269.165192,229.882812 
	C269.460205,228.741013 271.603027,227.123337 272.539917,227.328125 
	C273.884949,227.622147 274.908112,229.388458 276.164612,230.923492 
z"/>
<path fill="#2A2B2D" opacity="1.000000" stroke="none" 
	d="
M299.680908,229.395050 
	C299.958954,254.729935 299.979034,280.379364 299.981628,306.492920 
	C299.644348,305.721466 299.048370,304.486450 299.045563,303.250122 
	C298.991913,279.547150 299.003845,255.844055 299.026947,232.140991 
	C299.027740,231.330383 299.285156,230.520035 299.680908,229.395050 
z"/>
<path fill="#8E8E8E" opacity="1.000000" stroke="none" 
	d="
M257.599854,198.967560 
	C257.825409,198.617142 258.509338,198.035263 259.192657,198.035934 
	C275.301025,198.051743 291.409363,198.130371 307.714691,198.578659 
	C291.293762,198.975739 274.675842,198.991623 257.599854,198.967560 
z"/>
<path fill="#A3A3A5" opacity="1.000000" stroke="none" 
	d="
M257.011871,336.828064 
	C240.669098,336.898621 224.326324,336.969177 207.519043,337.013367 
	C208.352798,336.648376 209.650040,336.020020 210.949493,336.015350 
	C225.993607,335.961212 241.038040,336.001312 256.546692,336.257019 
	C257.010956,336.497620 257.011871,336.828064 257.011871,336.828064 
z"/>
<path fill="#ACADAF" opacity="1.000000" stroke="none" 
	d="
M257.475952,336.891968 
	C257.011871,336.828064 257.010956,336.497620 257.010620,336.332397 
	C271.205414,336.169678 285.400543,336.172211 299.760498,336.578064 
	C285.930206,336.972870 271.935120,336.964386 257.475952,336.891968 
z"/>
<path fill="#D2D4D5" opacity="1.000000" stroke="none" 
	d="
M207.290771,306.509583 
	C220.371719,306.097565 233.669998,306.054413 247.429993,306.021942 
	C247.079971,306.352997 246.268707,306.950836 245.456436,306.952179 
	C232.807068,306.973114 220.157578,306.916870 207.290771,306.509583 
z"/>
<path fill="#B6B7B8" opacity="1.000000" stroke="none" 
	d="
M156.572418,257.244751 
	C156.995438,266.062775 157.013504,275.041687 157.009888,284.485718 
	C156.650330,283.824127 156.023941,282.698273 156.020813,281.570709 
	C155.998474,273.515900 156.103165,265.460754 156.572418,257.244751 
z"/>
<path fill="#262529" opacity="1.000000" stroke="none" 
	d="
M264.683289,273.414917 
	C264.792389,278.168671 264.645599,283.234314 264.260925,288.631775 
	C264.157837,283.884674 264.292633,278.805725 264.683289,273.414917 
z"/>
<path fill="#262529" opacity="1.000000" stroke="none" 
	d="
M264.020416,291.506317 
	C264.344879,295.696136 264.659393,300.346191 264.958130,305.451324 
	C264.631744,301.259796 264.321106,296.613159 264.020416,291.506317 
z"/>
<path fill="#262529" opacity="1.000000" stroke="none" 
	d="
M167.745132,188.888306 
	C167.791718,189.048965 167.604889,189.388931 167.183197,189.904617 
	C167.136139,189.742767 167.323929,189.405182 167.745132,188.888306 
z"/>
<path fill="#262529" opacity="1.000000" stroke="none" 
	d="
M181.774918,175.106598 
	C181.764282,175.244080 181.509232,175.502579 181.001434,175.876495 
	C181.009293,175.737137 181.269882,175.482376 181.774918,175.106598 
z"/>
<path fill="#000000" opacity="1.000000" stroke="none" 
	d="
M315.900452,240.035431 
	C320.082550,239.575180 323.585205,240.613586 325.921387,245.287872 
	C326.057800,259.007233 326.061157,271.957031 326.064514,284.906860 
	C326.049561,285.239197 326.028870,285.571381 326.020477,285.903900 
	C325.808228,294.314850 325.375427,294.741028 316.219727,294.627258 
	C315.946594,275.979431 315.923523,258.007446 315.900452,240.035431 
z"/>
<path fill="#6A6D6F" opacity="1.000000" stroke="none" 
	d="
M315.607025,240.330505 
	C315.923523,258.007446 315.946594,275.979431 315.952637,294.410736 
	C315.638489,294.140900 315.080750,293.411133 315.082458,292.682709 
	C315.123138,275.330261 315.223816,257.977936 315.607025,240.330505 
z"/>
<path fill="#262529" opacity="1.000000" stroke="none" 
	d="
M326.291321,284.574463 
	C326.061157,271.957031 326.057800,259.007233 326.084381,245.606476 
	C326.405945,247.083664 326.958282,249.013412 326.946320,250.939651 
	C326.877472,262.040894 326.675171,273.141327 326.291321,284.574463 
z"/>
<path fill="#000000" opacity="1.000000" stroke="none" 
	d="
M173.829926,292.940552 
	C173.066910,286.897369 172.180420,281.149323 172.275650,275.417572 
	C172.304077,273.706573 174.826584,271.179901 176.680298,270.632843 
	C178.112213,270.210266 181.110092,271.825195 181.978851,273.350433 
	C185.104431,278.837799 184.898361,284.809814 182.625488,290.597198 
	C180.973724,294.803070 178.129196,296.237213 173.829926,292.940552 
z"/>
</svg>